# xmcd
#
# Track frame offsets:
#	150
#	11158
#	22491
#	33080
#	42350
#	54682
#	90958
#	100285
#	112380
#	123685
#	135394
#	145452
#	155328
#	166955
#	179040
#	192093
#	202189
#	213430
#	223275
#	233633
#	243370
#	256461
#	266513
#	279409
#	289080
#	300758
#	309985
#	320088
#
# Disc length: 4403 seconds
#
# Revision: 1
# Processed by: cddbd v1.5.2PL0 Copyright (c) Steve Scherf et al.
# Submitted via: audiograbber 1.83.01
#
DISCID=aa11311c
DTITLE=Various Artist - Instrumental-ly Ur's - Volume 6
DYEAR=1900
DGENRE=
TTITLE0=Drivers - Bandido
TTITLE1=Dinks - Potato Peeler
TTITLE2=Rotations - Put A Dime In D-9
TTITLE3=Boots Brown Orch. - Cerveza
TTITLE4=Packards - Hole In The Wall
TTITLE5=Willie Mitchell - 30-60-90
TTITLE6=Berry - Mad Lad
TTITLE7=Santa Maria - Sugar Cane Hombre
TTITLE8=N.T.5 - Sister James
TTITLE9=Skippy Brooks - The Horse 
TTITLE10=Satelittes - Jupiter-C
TTITLE11=Baby Bugs - B.I.N.G.O
TTITLE12=I.B.B. - Bongo Rock
TTITLE13=Buena Vista - Soul Clappin'
TTITLE14=Young Holt Unlimited - Straight Ahead
TTITLE15=Willie Mitchell - 20-75
TTITLE16=Novas - Novas Coaster
TTITLE17=Bobby Bloom - Fanta
TTITLE18=Ritchie Allen - Goochy Bamba
TTITLE19=Crescents - Pink Dominos
TTITLE20=Wind - Groovin With Mr. Bloe
TTITLE21=Markeys - Philly Dog
TTITLE22=Ray Caiola - Experiment In Terror
TTITLE23=Gng Show Band - Gene Gene The Dancing Machine
TTITLE24=Wailers - Mau Mau
TTITLE25=Pyramids - Pyramid's Stomp
TTITLE26=Hen Gates and His Gaters - Stomp Rock
TTITLE27=Paris Rock And Roll Assembly - Rock And Rock
EXTD=
EXTT0=
EXTT1=
EXTT2=
EXTT3=
EXTT4=
EXTT5=
EXTT6=
EXTT7=
EXTT8=
EXTT9=
EXTT10=
EXTT11=
EXTT12=
EXTT13=
EXTT14=
EXTT15=
EXTT16=
EXTT17=
EXTT18=
EXTT19=
EXTT20=
EXTT21=
EXTT22=
EXTT23=
EXTT24=
EXTT25=
EXTT26=
EXTT27=
PLAYORDER=
